<?xml version="1.0" encoding="UTF-8" standalone="no"?>
<svg width="159px" height="148px" viewBox="0 0 159 148" version="1.1" xmlns="http://www.w3.org/2000/svg" xmlns:xlink="http://www.w3.org/1999/xlink" xmlns:sketch="http://www.bohemiancoding.com/sketch/ns">
    <!-- Generator: Sketch 3.0.4 (8053) - http://www.bohemiancoding.com/sketch -->
    <title>Chip</title>
    <desc>Created with Sketch.</desc>
    <defs></defs>
    <g id="Page-1" stroke="none" stroke-width="1" fill="none" fill-rule="evenodd" sketch:type="MSPage">
        <g id="Twitter_Avatar" sketch:type="MSLayerGroup" transform="translate(-75.000000, -51.000000)">
            <g id="hexagon-+-Chip" transform="translate(22.000000, 8.000000)" sketch:type="MSShapeGroup">
                <g id="Chip" transform="translate(55.251799, 45.048387)">
                    <ellipse id="Oval" stroke="#FFFFFF" stroke-width="3" cx="33.8313802" cy="7.22591005" rx="7.30945331" ry="6.86499145"></ellipse>
                    <path d="M39.733772,6.5651585 L49.4230089,6.5651585 C56.0289314,6.5651585 59.2823483,9.93716288 60.7769383,13.9326934 C62.9767105,19.8143128 64.9056399,28.275345 64.9056399,28.275345" id="Shape" stroke="#FFFFFF" stroke-width="3"></path>
                    <ellipse id="Oval" fill="#FFFFFF" cx="65.2095123" cy="35.1449896" rx="7.30945331" ry="6.86499145"></ellipse>
                    <ellipse id="Oval" stroke="#FFFFFF" stroke-width="3" cx="7.40768994" cy="59.9619492" rx="7.30945331" ry="6.86499145"></ellipse>
                    <path d="M14.9615624,57.9193548 L33.7372458,57.9193548" id="Shape" stroke="#FFFFFF" stroke-width="3"></path>
                    <ellipse id="Oval" fill="#FFFFFF" cx="38.7858221" cy="59.9619492" rx="7.30945331" ry="6.86499145"></ellipse>
                    <ellipse id="Oval" stroke="#FFFFFF" stroke-width="3" cx="7.40768994" cy="135.963888" rx="7.30945331" ry="6.86499145"></ellipse>
                    <path d="M33.7322913,78.010083 C33.7322913,78.010083 25.2139542,77.9139173 17.9887264,77.9139173 C10.5570635,77.9139173 8.35563982,82.0754112 8.35563982,89.0179557 L8.35563982,127.80221" id="Shape" stroke="#FFFFFF" stroke-width="3"></path>
                    <ellipse id="Oval" fill="#FFFFFF" cx="38.7858221" cy="77.0236089" rx="7.30945331" ry="6.86499145"></ellipse>
                    <ellipse id="Oval" fill="#FFFFFF" cx="113.102451" cy="59.9619492" rx="7.30945331" ry="6.86499145"></ellipse>
                    <path d="M119.004843,57.9193548 L141.083487,57.9193548" id="Shape" stroke="#FFFFFF" stroke-width="3"></path>
                    <ellipse id="Oval" stroke="#FFFFFF" stroke-width="3" cx="146.132064" cy="59.9619492" rx="7.30945331" ry="6.86499145"></ellipse>
                    <ellipse id="Oval" fill="#FFFFFF" cx="111.45097" cy="78.5746689" rx="7.30945331" ry="6.86499145"></ellipse>
                    <path d="M119.004843,77.9139173 L127.670162,77.9139173 C130.560253,77.9139173 131.919421,78.3544183 133.587417,78.9810466 C136.340435,80.0140525 139.643396,81.1804496 139.643396,81.1804496" id="Shape" stroke="#FFFFFF" stroke-width="3"></path>
                    <ellipse id="Oval" stroke="#FFFFFF" stroke-width="3" cx="146.132064" cy="84.7789088" rx="7.30945331" ry="6.86499145"></ellipse>
                    <path d="M95.6182253,81.1773475 C95.6182253,84.8595639 92.4374736,87.8469054 88.5168585,87.8469054 L61.7001159,87.8469054 C57.7778494,87.8469054 54.5970977,84.8595639 54.5970977,81.1773475 L54.5970977,56.6643957 C54.5970977,52.9821793 57.7778494,49.9948378 61.7001159,49.9948378 L88.5168585,49.9948378 C92.4374736,49.9948378 95.6182253,52.9821793 95.6182253,56.6643957 L95.6182253,81.1773475 L95.6182253,81.1773475 Z" id="Shape" stroke="#FFFFFF" stroke-width="4" fill="#FFFFFF"></path>
                    <ellipse id="Oval" stroke="#FFFFFF" stroke-width="3" cx="85.02728" cy="7.22591005" rx="7.30945331" ry="6.86499145"></ellipse>
                    <path d="M82.8776978,14.3204584 L82.8776978,30.3987461" id="Shape" stroke="#FFFFFF" stroke-width="3"></path>
                    <ellipse id="Oval" fill="#FFFFFF" cx="85.02728" cy="35.1449896" rx="7.30945331" ry="6.86499145"></ellipse>
                    <ellipse id="Oval" fill="#FFFFFF" cx="65.2095123" cy="101.840568" rx="7.30945331" ry="6.86499145"></ellipse>
                    <path d="M59.3517105,101.179817 L34.77933,101.179817 C30.4441934,101.179817 26.5219268,103.118642 26.5219268,109.516764 C26.5219268,111.854212 26.7283619,114.745387 26.7283619,114.745387" id="Shape" stroke="#FFFFFF" stroke-width="3"></path>
                    <ellipse id="Oval" stroke="#FFFFFF" stroke-width="3" cx="27.2254576" cy="122.004348" rx="7.30945331" ry="6.86499145"></ellipse>
                    <ellipse id="Oval" fill="#FFFFFF" cx="85.02728" cy="101.840568" rx="7.30945331" ry="6.86499145"></ellipse>
                    <path d="M92.5811524,101.179817 L102.276995,101.179817 C106.612132,101.179817 110.534398,103.118642 110.534398,109.516764 C110.534398,115.153316 110.327963,120.955832 110.327963,120.955832" id="Shape" stroke="#FFFFFF" stroke-width="3"></path>
                    <ellipse id="Oval" stroke="#FFFFFF" stroke-width="3" cx="109.79949" cy="128.208588" rx="7.30945331" ry="6.86499145"></ellipse>
                </g>
            </g>
        </g>
    </g>
</svg>