<?xml version="1.0" encoding="utf-8"?>
<!-- Generator: Adobe Illustrator 14.0.0, SVG Export Plug-In . SVG Version: 6.00 Build 43363)  -->
<!DOCTYPE svg PUBLIC "-//W3C//DTD SVG 1.1//EN" "http://www.w3.org/Graphics/SVG/1.1/DTD/svg11.dtd">
<svg version="1.1" id="Layer_1" xmlns="http://www.w3.org/2000/svg" xmlns:xlink="http://www.w3.org/1999/xlink" x="0px" y="0px"
	 width="841.89px" height="595.28px" viewBox="0 0 841.89 595.28" enable-background="new 0 0 841.89 595.28" xml:space="preserve">
<path fill="none" stroke="#000000" d="M6.861,299.557c-0.215,36.977,31.116,77.359,75.387,76.539
	c62.246-1.152,75.156-59.2,75.156-59.2h166.529c0,0,6.666-0.106,17.213,3.257c6.923,2.208,8.607,4.303,8.607,4.303l103.281,106.356
	c0,0,1.232,4.305,14.143,12.297c12.91,7.991,31.966,11.065,31.966,11.065h82.382v30.737h90.984v-90.372l-90.88,0.174l-0.028,30.569
	l-77.538,0.61c0,0-8.608,0.616-15.986-4.917c-7.377-5.532-10.45-7.377-10.45-7.377l-89.756-96.814h354.724v35.952l90.787-51.027
	l-89.556-54.716v39.529H277.824c0,0-4.458,1.507-5.841-2.642c-1.383-4.15,0.922-3.689,0.922-3.689l87.029-90.487
	c0,0,5.072-4.726,11.873-8.415c6.576-3.567,14.063-3.458,14.063-3.458l84.84-0.461c0,0,7.839,29.971,42.189,29.855
	c40.69-0.346,44.84-43.918,44.84-43.918s-1.498-47.376-44.379-45.532c-32.275,0.828-40.475,26.143-41.728,30.893
	c-0.033,0.113-90.143,0.461-90.143,0.461s-8.242,0.922-22.362,8.415s-24.553,20.057-24.553,20.057l-89.334,94.291
	c0,0-4.857,5.963-13.841,9.956c-8.983,3.992-16.821,4.568-16.821,4.568l-56.463,0.454c0,0-12.699-62.931-74.022-61.778
	C9.627,223.708,6.861,299.557,6.861,299.557"/>
<g>
	<path d="M19.964,416.45h2.584v15.609c0,1.852,0.035,3.006,0.105,3.463c0.129,1.02,0.428,1.872,0.896,2.558s1.189,1.26,2.162,1.723
		s1.951,0.694,2.936,0.694c0.855,0,1.676-0.182,2.461-0.545s1.441-0.867,1.969-1.512s0.914-1.424,1.16-2.338
		c0.176-0.656,0.264-2.004,0.264-4.043V416.45h2.584v15.609c0,2.309-0.226,4.175-0.677,5.599s-1.354,2.663-2.707,3.718
		s-2.991,1.582-4.913,1.582c-2.086,0-3.873-0.498-5.361-1.494s-2.484-2.314-2.988-3.955c-0.316-1.008-0.475-2.824-0.475-5.449
		V416.45z"/>
	<path d="M40.776,437.491l2.197-1.318c1.547,2.848,3.334,4.271,5.361,4.271c0.867,0,1.682-0.202,2.443-0.606s1.342-0.946,1.74-1.626
		s0.598-1.4,0.598-2.162c0-0.867-0.293-1.717-0.879-2.549c-0.809-1.148-2.285-2.531-4.43-4.148
		c-2.156-1.629-3.498-2.807-4.025-3.533c-0.914-1.219-1.371-2.537-1.371-3.955c0-1.125,0.27-2.15,0.809-3.076
		s1.298-1.655,2.276-2.188s2.042-0.8,3.19-0.8c1.219,0,2.358,0.302,3.419,0.905s2.183,1.714,3.366,3.331l-2.109,1.6
		c-0.973-1.289-1.802-2.139-2.487-2.549s-1.433-0.615-2.241-0.615c-1.043,0-1.896,0.316-2.558,0.949s-0.993,1.412-0.993,2.338
		c0,0.563,0.117,1.107,0.352,1.635s0.662,1.102,1.283,1.723c0.34,0.328,1.453,1.189,3.34,2.584c2.238,1.652,3.773,3.123,4.605,4.412
		s1.248,2.584,1.248,3.885c0,1.875-0.712,3.504-2.136,4.887s-3.155,2.074-5.194,2.074c-1.57,0-2.994-0.419-4.271-1.257
		S41.854,439.46,40.776,437.491z"/>
	<path d="M61.448,416.45h5.098c2.051,0,3.627,0.243,4.729,0.729s1.972,1.233,2.61,2.241s0.958,2.127,0.958,3.357
		c0,1.148-0.28,2.194-0.84,3.138c-0.56,0.943-1.382,1.708-2.466,2.294c1.344,0.457,2.377,0.993,3.102,1.608
		c0.724,0.615,1.288,1.359,1.691,2.232c0.403,0.873,0.605,1.819,0.605,2.839c0,2.074-0.759,3.829-2.276,5.265
		s-3.554,2.153-6.108,2.153h-7.102V416.45z M63.979,418.981v8.279h1.479c1.797,0,3.118-0.167,3.964-0.501
		c0.845-0.334,1.515-0.861,2.008-1.582c0.493-0.721,0.74-1.521,0.74-2.399c0-1.184-0.414-2.112-1.242-2.786
		c-0.828-0.674-2.146-1.011-3.955-1.011H63.979z M63.979,429.862v9.914h3.205c1.89,0,3.275-0.185,4.156-0.554
		c0.88-0.369,1.587-0.946,2.122-1.731s0.801-1.635,0.801-2.549c0-1.148-0.375-2.15-1.126-3.006s-1.783-1.441-3.097-1.758
		c-0.881-0.211-2.413-0.316-4.598-0.316H63.979z"/>
	<path d="M92.017,416.45h2.584v23.361h9.949v2.496H92.017V416.45z"/>
	<path d="M117.294,422.69c2.946,0,5.388,1.066,7.325,3.199c1.761,1.945,2.642,4.248,2.642,6.908c0,2.672-0.931,5.007-2.791,7.005
		c-1.861,1.998-4.253,2.997-7.176,2.997c-2.935,0-5.333-0.999-7.193-2.997c-1.861-1.998-2.791-4.333-2.791-7.005
		c0-2.648,0.88-4.945,2.642-6.891C111.888,423.763,114.335,422.69,117.294,422.69z M117.285,425.099
		c-2.046,0-3.805,0.756-5.274,2.268c-1.47,1.512-2.205,3.34-2.205,5.484c0,1.383,0.335,2.672,1.005,3.867s1.576,2.118,2.717,2.769
		c1.141,0.65,2.393,0.976,3.757,0.976c1.364,0,2.616-0.325,3.757-0.976c1.141-0.65,2.046-1.573,2.717-2.769
		c0.67-1.195,1.005-2.484,1.005-3.867c0-2.145-0.738-3.973-2.214-5.484S119.319,425.099,117.285,425.099z"/>
	<path d="M148.302,423.183h2.461v15.24c0,2.684-0.234,4.646-0.703,5.889c-0.645,1.758-1.764,3.111-3.357,4.061
		s-3.51,1.424-5.748,1.424c-1.641,0-3.114-0.232-4.421-0.696c-1.307-0.465-2.37-1.087-3.19-1.869
		c-0.82-0.781-1.576-1.925-2.268-3.429h2.672c0.728,1.266,1.666,2.203,2.816,2.813c1.149,0.609,2.575,0.914,4.276,0.914
		c1.678,0,3.095-0.313,4.25-0.938s1.98-1.41,2.473-2.355c0.493-0.946,0.739-2.474,0.739-4.582v-0.984
		c-0.927,1.172-2.059,2.071-3.396,2.698s-2.757,0.94-4.258,0.94c-1.76,0-3.414-0.437-4.962-1.31
		c-1.549-0.873-2.745-2.048-3.59-3.524c-0.844-1.477-1.267-3.1-1.267-4.869s0.44-3.419,1.32-4.948
		c0.879-1.529,2.097-2.739,3.651-3.63s3.194-1.336,4.918-1.336c1.431,0,2.766,0.296,4.003,0.888
		c1.237,0.592,2.431,1.567,3.581,2.927V423.183z M141.042,425.063c-1.395,0-2.689,0.337-3.885,1.011s-2.133,1.605-2.813,2.795
		s-1.02,2.476-1.02,3.858c0,2.098,0.703,3.832,2.109,5.203s3.229,2.057,5.467,2.057c2.262,0,4.081-0.68,5.458-2.039
		s2.065-3.146,2.065-5.361c0-1.441-0.316-2.728-0.949-3.858s-1.529-2.024-2.689-2.681S142.378,425.063,141.042,425.063z"/>
	<path d="M165.089,422.69c2.946,0,5.388,1.066,7.325,3.199c1.761,1.945,2.642,4.248,2.642,6.908c0,2.672-0.931,5.007-2.791,7.005
		c-1.861,1.998-4.253,2.997-7.176,2.997c-2.935,0-5.333-0.999-7.193-2.997c-1.861-1.998-2.791-4.333-2.791-7.005
		c0-2.648,0.88-4.945,2.642-6.891C159.683,423.763,162.13,422.69,165.089,422.69z M165.08,425.099c-2.046,0-3.805,0.756-5.274,2.268
		c-1.47,1.512-2.205,3.34-2.205,5.484c0,1.383,0.335,2.672,1.005,3.867s1.576,2.118,2.717,2.769c1.141,0.65,2.393,0.976,3.757,0.976
		c1.364,0,2.616-0.325,3.757-0.976c1.141-0.65,2.046-1.573,2.717-2.769c0.67-1.195,1.005-2.484,1.005-3.867
		c0-2.145-0.738-3.973-2.214-5.484S167.114,425.099,165.08,425.099z"/>
	<path d="M188.011,416.45h2.813l8.57,19.977l8.709-19.977h2.813l-11.25,25.857h-0.563L188.011,416.45z"/>
	<path d="M230.954,435.962l2.074,1.09c-0.68,1.336-1.466,2.414-2.357,3.234c-0.892,0.82-1.895,1.444-3.009,1.872
		c-1.115,0.428-2.375,0.642-3.783,0.642c-3.12,0-5.56-1.022-7.319-3.067s-2.639-4.356-2.639-6.935c0-2.426,0.745-4.588,2.234-6.486
		c1.888-2.414,4.416-3.621,7.583-3.621c3.261,0,5.864,1.236,7.812,3.709c1.384,1.746,2.088,3.926,2.111,6.539h-17.209
		c0.047,2.222,0.757,4.042,2.129,5.463s3.068,2.131,5.086,2.131c0.974,0,1.921-0.169,2.842-0.508
		c0.921-0.339,1.704-0.788,2.349-1.349C229.505,438.116,230.203,437.211,230.954,435.962z M230.954,430.812
		c-0.329-1.313-0.807-2.361-1.435-3.146s-1.458-1.418-2.49-1.898c-1.033-0.48-2.118-0.721-3.256-0.721
		c-1.877,0-3.491,0.604-4.84,1.811c-0.986,0.879-1.731,2.197-2.235,3.955H230.954z"/>
	<path d="M256.812,427.155l-1.951,1.213c-1.686-2.238-3.985-3.357-6.9-3.357c-2.329,0-4.263,0.749-5.803,2.247
		c-1.539,1.499-2.309,3.319-2.309,5.461c0,1.393,0.354,2.704,1.062,3.934c0.708,1.229,1.68,2.183,2.915,2.861
		s2.619,1.019,4.152,1.019c2.81,0,5.104-1.119,6.883-3.357l1.951,1.283c-0.914,1.377-2.142,2.444-3.683,3.203
		s-3.296,1.139-5.265,1.139c-3.023,0-5.531-0.961-7.523-2.883s-2.988-4.26-2.988-7.014c0-1.852,0.466-3.571,1.397-5.159
		s2.212-2.827,3.841-3.718s3.451-1.336,5.467-1.336c1.266,0,2.487,0.193,3.665,0.58s2.177,0.891,2.997,1.512
		S256.237,426.194,256.812,427.155z"/>
	<path d="M263.685,416.081h2.461v7.102h3.902v2.127h-3.902v16.998h-2.461V425.31h-3.357v-2.127h3.357V416.081z"/>
	<path d="M282.792,422.69c2.946,0,5.388,1.066,7.325,3.199c1.761,1.945,2.642,4.248,2.642,6.908c0,2.672-0.931,5.007-2.791,7.005
		c-1.861,1.998-4.253,2.997-7.176,2.997c-2.935,0-5.333-0.999-7.193-2.997c-1.861-1.998-2.791-4.333-2.791-7.005
		c0-2.648,0.88-4.945,2.642-6.891C277.386,423.763,279.833,422.69,282.792,422.69z M282.783,425.099
		c-2.046,0-3.805,0.756-5.274,2.268c-1.47,1.512-2.205,3.34-2.205,5.484c0,1.383,0.335,2.672,1.005,3.867s1.576,2.118,2.717,2.769
		c1.141,0.65,2.393,0.976,3.757,0.976c1.364,0,2.616-0.325,3.757-0.976c1.141-0.65,2.046-1.573,2.717-2.769
		c0.67-1.195,1.005-2.484,1.005-3.867c0-2.145-0.738-3.973-2.214-5.484S284.817,425.099,282.783,425.099z"/>
	<path d="M296.38,423.183h2.514v2.795c0.75-1.102,1.541-1.925,2.373-2.47s1.699-0.817,2.602-0.817c0.68,0,1.406,0.217,2.18,0.65
		l-1.283,2.074c-0.516-0.223-0.949-0.334-1.301-0.334c-0.82,0-1.611,0.337-2.373,1.011s-1.342,1.72-1.74,3.138
		c-0.305,1.09-0.457,3.293-0.457,6.609v6.469h-2.514V423.183z"/>
	<path d="M18.338,450.979h2.549c1.025,0,1.813,0.122,2.364,0.365s0.986,0.616,1.305,1.12s0.479,1.063,0.479,1.679
		c0,0.574-0.14,1.098-0.42,1.568c-0.28,0.473-0.691,0.854-1.233,1.147c0.671,0.229,1.188,0.497,1.551,0.804
		c0.362,0.309,0.644,0.681,0.846,1.117s0.302,0.909,0.302,1.419c0,1.037-0.379,1.915-1.138,2.632
		c-0.759,0.719-1.777,1.077-3.054,1.077h-3.551V450.979z M19.604,452.244v4.14h0.74c0.898,0,1.559-0.083,1.982-0.251
		c0.423-0.166,0.757-0.43,1.004-0.791c0.247-0.359,0.37-0.76,0.37-1.199c0-0.592-0.207-1.056-0.621-1.393s-1.073-0.506-1.978-0.506
		H19.604z M19.604,457.685v4.957h1.603c0.945,0,1.637-0.093,2.078-0.276c0.44-0.186,0.794-0.474,1.061-0.866
		c0.267-0.393,0.4-0.817,0.4-1.274c0-0.574-0.188-1.075-0.563-1.503s-0.892-0.721-1.549-0.879c-0.44-0.105-1.207-0.158-2.299-0.158
		H19.604z"/>
	<path d="M27.408,454.345h1.301l3.286,7.363l3.191-7.363h1.31l-5.704,13.061h-1.3l1.841-4.223L27.408,454.345z"/>
	<path d="M52.352,456.331l-0.976,0.606c-0.843-1.119-1.993-1.679-3.45-1.679c-1.165,0-2.132,0.375-2.901,1.124
		s-1.154,1.659-1.154,2.73c0,0.696,0.177,1.352,0.531,1.966c0.354,0.615,0.84,1.092,1.457,1.432c0.618,0.339,1.31,0.509,2.076,0.509
		c1.405,0,2.552-0.56,3.441-1.679l0.976,0.642c-0.457,0.688-1.071,1.223-1.841,1.602c-0.771,0.38-1.648,0.569-2.632,0.569
		c-1.512,0-2.766-0.48-3.762-1.441s-1.494-2.13-1.494-3.507c0-0.926,0.233-1.785,0.699-2.58c0.466-0.793,1.106-1.413,1.92-1.858
		s1.726-0.668,2.733-0.668c0.633,0,1.244,0.097,1.833,0.29s1.088,0.445,1.499,0.756S52.064,455.851,52.352,456.331z"/>
	<path d="M59.242,454.099c1.473,0,2.694,0.533,3.663,1.6c0.88,0.973,1.321,2.124,1.321,3.454c0,1.336-0.465,2.504-1.396,3.502
		c-0.931,1-2.126,1.499-3.588,1.499c-1.467,0-2.667-0.499-3.597-1.499c-0.93-0.998-1.396-2.166-1.396-3.502
		c0-1.324,0.44-2.473,1.321-3.445C56.539,454.635,57.763,454.099,59.242,454.099z M59.238,455.303c-1.023,0-1.902,0.378-2.637,1.134
		s-1.103,1.67-1.103,2.742c0,0.691,0.167,1.336,0.503,1.934c0.335,0.598,0.788,1.06,1.358,1.384c0.57,0.326,1.196,0.488,1.878,0.488
		s1.308-0.162,1.878-0.488c0.571-0.324,1.023-0.786,1.358-1.384c0.335-0.598,0.503-1.242,0.503-1.934
		c0-1.072-0.369-1.986-1.107-2.742C61.132,455.681,60.255,455.303,59.238,455.303z"/>
	<path d="M66.502,454.345h1.23v1.714c0.492-0.656,1.037-1.146,1.635-1.473c0.598-0.324,1.248-0.487,1.951-0.487
		c0.715,0,1.349,0.182,1.903,0.545s0.962,0.853,1.226,1.468s0.396,1.573,0.396,2.874v4.922h-1.23v-4.562
		c0-1.102-0.046-1.837-0.137-2.206c-0.143-0.633-0.417-1.108-0.821-1.429c-0.404-0.318-0.932-0.479-1.582-0.479
		c-0.744,0-1.411,0.246-2,0.738s-0.977,1.102-1.165,1.828c-0.117,0.475-0.176,1.342-0.176,2.602v3.507h-1.23V454.345z"/>
	<path d="M82.006,454.099c1.473,0,2.694,0.533,3.663,1.6c0.88,0.973,1.321,2.124,1.321,3.454c0,1.336-0.465,2.504-1.396,3.502
		c-0.931,1-2.126,1.499-3.588,1.499c-1.467,0-2.667-0.499-3.597-1.499c-0.93-0.998-1.396-2.166-1.396-3.502
		c0-1.324,0.44-2.473,1.321-3.445C79.303,454.635,80.527,454.099,82.006,454.099z M82.001,455.303c-1.023,0-1.902,0.378-2.637,1.134
		s-1.103,1.67-1.103,2.742c0,0.691,0.167,1.336,0.503,1.934c0.335,0.598,0.788,1.06,1.358,1.384c0.57,0.326,1.196,0.488,1.878,0.488
		s1.308-0.162,1.878-0.488c0.571-0.324,1.023-0.786,1.358-1.384c0.335-0.598,0.503-1.242,0.503-1.934
		c0-1.072-0.369-1.986-1.107-2.742C83.896,455.681,83.019,455.303,82.001,455.303z"/>
	<path d="M88.8,454.345h1.257v1.397c0.375-0.551,0.771-0.963,1.187-1.234c0.416-0.273,0.85-0.409,1.301-0.409
		c0.34,0,0.703,0.108,1.09,0.325l-0.642,1.037c-0.258-0.111-0.475-0.167-0.65-0.167c-0.41,0-0.806,0.169-1.187,0.505
		c-0.381,0.338-0.671,0.86-0.87,1.569c-0.152,0.545-0.229,1.646-0.229,3.305v3.234H88.8V454.345z"/>
	<path d="M99.206,454.099c1.473,0,2.694,0.533,3.663,1.6c0.88,0.973,1.321,2.124,1.321,3.454c0,1.336-0.465,2.504-1.396,3.502
		c-0.931,1-2.126,1.499-3.588,1.499c-1.467,0-2.667-0.499-3.597-1.499c-0.93-0.998-1.396-2.166-1.396-3.502
		c0-1.324,0.44-2.473,1.321-3.445C96.503,454.635,97.727,454.099,99.206,454.099z M99.202,455.303c-1.023,0-1.902,0.378-2.637,1.134
		s-1.103,1.67-1.103,2.742c0,0.691,0.167,1.336,0.503,1.934c0.335,0.598,0.788,1.06,1.358,1.384c0.57,0.326,1.196,0.488,1.878,0.488
		s1.308-0.162,1.878-0.488c0.571-0.324,1.023-0.786,1.358-1.384c0.335-0.598,0.503-1.242,0.503-1.934
		c0-1.072-0.369-1.986-1.107-2.742C101.096,455.681,100.219,455.303,99.202,455.303z"/>
	<path d="M106,454.345h1.257v1.397c0.375-0.551,0.771-0.963,1.187-1.234c0.416-0.273,0.85-0.409,1.301-0.409
		c0.34,0,0.703,0.108,1.09,0.325l-0.642,1.037c-0.258-0.111-0.475-0.167-0.65-0.167c-0.41,0-0.806,0.169-1.187,0.505
		c-0.381,0.338-0.671,0.86-0.87,1.569c-0.152,0.545-0.229,1.646-0.229,3.305v3.234H106V454.345z"/>
	<path d="M121.425,450.653v13.254h-1.213v-1.644c-0.516,0.627-1.094,1.099-1.736,1.415s-1.343,0.475-2.105,0.475
		c-1.354,0-2.509-0.49-3.467-1.472s-1.437-2.176-1.437-3.582c0-1.377,0.483-2.555,1.45-3.533s2.13-1.468,3.489-1.468
		c0.785,0,1.496,0.167,2.131,0.501s1.194,0.835,1.674,1.503v-5.449H121.425z M116.507,455.285c-0.685,0-1.317,0.168-1.896,0.505
		c-0.58,0.337-1.041,0.81-1.383,1.418c-0.343,0.608-0.514,1.252-0.514,1.931c0,0.674,0.173,1.317,0.518,1.932
		c0.345,0.615,0.809,1.093,1.391,1.436c0.583,0.343,1.207,0.514,1.875,0.514c0.673,0,1.311-0.17,1.914-0.509
		c0.603-0.34,1.067-0.799,1.392-1.379c0.325-0.579,0.487-1.231,0.487-1.958c0-1.105-0.364-2.03-1.093-2.773
		C118.469,455.657,117.572,455.285,116.507,455.285z"/>
	<path d="M133.738,454.345v9.563h-1.213v-1.644c-0.516,0.627-1.094,1.099-1.736,1.415s-1.343,0.475-2.105,0.475
		c-1.354,0-2.509-0.49-3.467-1.472s-1.437-2.176-1.437-3.582c0-1.377,0.483-2.555,1.45-3.533s2.13-1.468,3.489-1.468
		c0.785,0,1.496,0.167,2.131,0.501s1.194,0.835,1.674,1.503v-1.758H133.738z M128.821,455.285c-0.685,0-1.317,0.168-1.896,0.505
		c-0.58,0.337-1.041,0.81-1.383,1.418c-0.343,0.608-0.514,1.252-0.514,1.931c0,0.674,0.173,1.317,0.518,1.932
		c0.345,0.615,0.809,1.093,1.391,1.436c0.583,0.343,1.207,0.514,1.875,0.514c0.673,0,1.311-0.17,1.914-0.509
		c0.603-0.34,1.067-0.799,1.392-1.379c0.325-0.579,0.487-1.231,0.487-1.958c0-1.105-0.364-2.03-1.093-2.773
		C130.783,455.657,129.886,455.285,128.821,455.285z"/>
	<path d="M136.507,454.345h1.23v1.714c0.492-0.656,1.037-1.146,1.635-1.473c0.598-0.324,1.248-0.487,1.951-0.487
		c0.715,0,1.349,0.182,1.903,0.545s0.962,0.853,1.226,1.468s0.396,1.573,0.396,2.874v4.922h-1.23v-4.562
		c0-1.102-0.046-1.837-0.137-2.206c-0.143-0.633-0.417-1.108-0.821-1.429c-0.404-0.318-0.932-0.479-1.582-0.479
		c-0.744,0-1.411,0.246-2,0.738s-0.977,1.102-1.165,1.828c-0.117,0.475-0.176,1.342-0.176,2.602v3.507h-1.23V454.345z"/>
</g>
</svg>
